<?xml version="1.0" encoding="utf-8" standalone="no"?>
<!DOCTYPE svg PUBLIC "-//W3C//DTD SVG 1.1//EN"
  "http://www.w3.org/Graphics/SVG/1.1/DTD/svg11.dtd">
<svg xmlns:xlink="http://www.w3.org/1999/xlink" width="460.8pt" height="345.6pt" viewBox="0 0 460.8 345.6" xmlns="http://www.w3.org/2000/svg" version="1.1">
 <metadata>
  <rdf:RDF xmlns:dc="http://purl.org/dc/elements/1.1/" xmlns:cc="http://creativecommons.org/ns#" xmlns:rdf="http://www.w3.org/1999/02/22-rdf-syntax-ns#">
   <cc:Work>
    <dc:type rdf:resource="http://purl.org/dc/dcmitype/StillImage"/>
    <dc:date>2024-04-06T21:41:01.922987</dc:date>
    <dc:format>image/svg+xml</dc:format>
    <dc:creator>
     <cc:Agent>
      <dc:title>Matplotlib v3.8.2, https://matplotlib.org/</dc:title>
     </cc:Agent>
    </dc:creator>
   </cc:Work>
  </rdf:RDF>
 </metadata>
 <defs>
  <style type="text/css">*{stroke-linejoin: round; stroke-linecap: butt}</style>
 </defs>
 <g id="figure_1">
  <g id="patch_1">
   <path d="M 0 345.6 
L 460.8 345.6 
L 460.8 0 
L 0 0 
z
" style="fill: #ffffff"/>
  </g>
  <g id="axes_1">
   <g id="patch_2">
    <path d="M 57.6 307.584 
L 414.72 307.584 
L 414.72 41.472 
L 57.6 41.472 
z
" style="fill: #ffffff"/>
   </g>
   <g id="matplotlib.axis_1">
    <g id="xtick_1">
     <g id="line2d_1">
      <defs>
       <path id="mfdd730c78e" d="M 0 0 
L 0 3.5 
" style="stroke: #000000; stroke-width: 0.8"/>
      </defs>
      <g>
       <use xlink:href="#mfdd730c78e" x="73.507418" y="307.584" style="stroke: #000000; stroke-width: 0.8"/>
      </g>
     </g>
     <g id="text_1">
      <!-- 0 -->
      <g transform="translate(70.326168 322.182437) scale(0.1 -0.1)">
       <defs>
        <path id="DejaVuSans-30" d="M 2034 4250 
Q 1547 4250 1301 3770 
Q 1056 3291 1056 2328 
Q 1056 1369 1301 889 
Q 1547 409 2034 409 
Q 2525 409 2770 889 
Q 3016 1369 3016 2328 
Q 3016 3291 2770 3770 
Q 2525 4250 2034 4250 
z
M 2034 4750 
Q 2819 4750 3233 4129 
Q 3647 3509 3647 2328 
Q 3647 1150 3233 529 
Q 2819 -91 2034 -91 
Q 1250 -91 836 529 
Q 422 1150 422 2328 
Q 422 3509 836 4129 
Q 1250 4750 2034 4750 
z
" transform="scale(0.015625)"/>
       </defs>
       <use xlink:href="#DejaVuSans-30"/>
      </g>
     </g>
    </g>
    <g id="xtick_2">
     <g id="line2d_2">
      <g>
       <use xlink:href="#mfdd730c78e" x="146.72664" y="307.584" style="stroke: #000000; stroke-width: 0.8"/>
      </g>
     </g>
     <g id="text_2">
      <!-- 2 -->
      <g transform="translate(143.54539 322.182437) scale(0.1 -0.1)">
       <defs>
        <path id="DejaVuSans-32" d="M 1228 531 
L 3431 531 
L 3431 0 
L 469 0 
L 469 531 
Q 828 903 1448 1529 
Q 2069 2156 2228 2338 
Q 2531 2678 2651 2914 
Q 2772 3150 2772 3378 
Q 2772 3750 2511 3984 
Q 2250 4219 1831 4219 
Q 1534 4219 1204 4116 
Q 875 4013 500 3803 
L 500 4441 
Q 881 4594 1212 4672 
Q 1544 4750 1819 4750 
Q 2544 4750 2975 4387 
Q 3406 4025 3406 3419 
Q 3406 3131 3298 2873 
Q 3191 2616 2906 2266 
Q 2828 2175 2409 1742 
Q 1991 1309 1228 531 
z
" transform="scale(0.015625)"/>
       </defs>
       <use xlink:href="#DejaVuSans-32"/>
      </g>
     </g>
    </g>
    <g id="xtick_3">
     <g id="line2d_3">
      <g>
       <use xlink:href="#mfdd730c78e" x="219.945861" y="307.584" style="stroke: #000000; stroke-width: 0.8"/>
      </g>
     </g>
     <g id="text_3">
      <!-- 4 -->
      <g transform="translate(216.764611 322.182437) scale(0.1 -0.1)">
       <defs>
        <path id="DejaVuSans-34" d="M 2419 4116 
L 825 1625 
L 2419 1625 
L 2419 4116 
z
M 2253 4666 
L 3047 4666 
L 3047 1625 
L 3713 1625 
L 3713 1100 
L 3047 1100 
L 3047 0 
L 2419 0 
L 2419 1100 
L 313 1100 
L 313 1709 
L 2253 4666 
z
" transform="scale(0.015625)"/>
       </defs>
       <use xlink:href="#DejaVuSans-34"/>
      </g>
     </g>
    </g>
    <g id="xtick_4">
     <g id="line2d_4">
      <g>
       <use xlink:href="#mfdd730c78e" x="293.165083" y="307.584" style="stroke: #000000; stroke-width: 0.8"/>
      </g>
     </g>
     <g id="text_4">
      <!-- 6 -->
      <g transform="translate(289.983833 322.182437) scale(0.1 -0.1)">
       <defs>
        <path id="DejaVuSans-36" d="M 2113 2584 
Q 1688 2584 1439 2293 
Q 1191 2003 1191 1497 
Q 1191 994 1439 701 
Q 1688 409 2113 409 
Q 2538 409 2786 701 
Q 3034 994 3034 1497 
Q 3034 2003 2786 2293 
Q 2538 2584 2113 2584 
z
M 3366 4563 
L 3366 3988 
Q 3128 4100 2886 4159 
Q 2644 4219 2406 4219 
Q 1781 4219 1451 3797 
Q 1122 3375 1075 2522 
Q 1259 2794 1537 2939 
Q 1816 3084 2150 3084 
Q 2853 3084 3261 2657 
Q 3669 2231 3669 1497 
Q 3669 778 3244 343 
Q 2819 -91 2113 -91 
Q 1303 -91 875 529 
Q 447 1150 447 2328 
Q 447 3434 972 4092 
Q 1497 4750 2381 4750 
Q 2619 4750 2861 4703 
Q 3103 4656 3366 4563 
z
" transform="scale(0.015625)"/>
       </defs>
       <use xlink:href="#DejaVuSans-36"/>
      </g>
     </g>
    </g>
    <g id="xtick_5">
     <g id="line2d_5">
      <g>
       <use xlink:href="#mfdd730c78e" x="366.384305" y="307.584" style="stroke: #000000; stroke-width: 0.8"/>
      </g>
     </g>
     <g id="text_5">
      <!-- 8 -->
      <g transform="translate(363.203055 322.182437) scale(0.1 -0.1)">
       <defs>
        <path id="DejaVuSans-38" d="M 2034 2216 
Q 1584 2216 1326 1975 
Q 1069 1734 1069 1313 
Q 1069 891 1326 650 
Q 1584 409 2034 409 
Q 2484 409 2743 651 
Q 3003 894 3003 1313 
Q 3003 1734 2745 1975 
Q 2488 2216 2034 2216 
z
M 1403 2484 
Q 997 2584 770 2862 
Q 544 3141 544 3541 
Q 544 4100 942 4425 
Q 1341 4750 2034 4750 
Q 2731 4750 3128 4425 
Q 3525 4100 3525 3541 
Q 3525 3141 3298 2862 
Q 3072 2584 2669 2484 
Q 3125 2378 3379 2068 
Q 3634 1759 3634 1313 
Q 3634 634 3220 271 
Q 2806 -91 2034 -91 
Q 1263 -91 848 271 
Q 434 634 434 1313 
Q 434 1759 690 2068 
Q 947 2378 1403 2484 
z
M 1172 3481 
Q 1172 3119 1398 2916 
Q 1625 2713 2034 2713 
Q 2441 2713 2670 2916 
Q 2900 3119 2900 3481 
Q 2900 3844 2670 4047 
Q 2441 4250 2034 4250 
Q 1625 4250 1398 4047 
Q 1172 3844 1172 3481 
z
" transform="scale(0.015625)"/>
       </defs>
       <use xlink:href="#DejaVuSans-38"/>
      </g>
     </g>
    </g>
    <g id="text_6">
     <!-- arc position -->
     <g transform="translate(207.01 335.860562) scale(0.1 -0.1)">
      <defs>
       <path id="DejaVuSans-61" d="M 2194 1759 
Q 1497 1759 1228 1600 
Q 959 1441 959 1056 
Q 959 750 1161 570 
Q 1363 391 1709 391 
Q 2188 391 2477 730 
Q 2766 1069 2766 1631 
L 2766 1759 
L 2194 1759 
z
M 3341 1997 
L 3341 0 
L 2766 0 
L 2766 531 
Q 2569 213 2275 61 
Q 1981 -91 1556 -91 
Q 1019 -91 701 211 
Q 384 513 384 1019 
Q 384 1609 779 1909 
Q 1175 2209 1959 2209 
L 2766 2209 
L 2766 2266 
Q 2766 2663 2505 2880 
Q 2244 3097 1772 3097 
Q 1472 3097 1187 3025 
Q 903 2953 641 2809 
L 641 3341 
Q 956 3463 1253 3523 
Q 1550 3584 1831 3584 
Q 2591 3584 2966 3190 
Q 3341 2797 3341 1997 
z
" transform="scale(0.015625)"/>
       <path id="DejaVuSans-72" d="M 2631 2963 
Q 2534 3019 2420 3045 
Q 2306 3072 2169 3072 
Q 1681 3072 1420 2755 
Q 1159 2438 1159 1844 
L 1159 0 
L 581 0 
L 581 3500 
L 1159 3500 
L 1159 2956 
Q 1341 3275 1631 3429 
Q 1922 3584 2338 3584 
Q 2397 3584 2469 3576 
Q 2541 3569 2628 3553 
L 2631 2963 
z
" transform="scale(0.015625)"/>
       <path id="DejaVuSans-63" d="M 3122 3366 
L 3122 2828 
Q 2878 2963 2633 3030 
Q 2388 3097 2138 3097 
Q 1578 3097 1268 2742 
Q 959 2388 959 1747 
Q 959 1106 1268 751 
Q 1578 397 2138 397 
Q 2388 397 2633 464 
Q 2878 531 3122 666 
L 3122 134 
Q 2881 22 2623 -34 
Q 2366 -91 2075 -91 
Q 1284 -91 818 406 
Q 353 903 353 1747 
Q 353 2603 823 3093 
Q 1294 3584 2113 3584 
Q 2378 3584 2631 3529 
Q 2884 3475 3122 3366 
z
" transform="scale(0.015625)"/>
       <path id="DejaVuSans-20" transform="scale(0.015625)"/>
       <path id="DejaVuSans-70" d="M 1159 525 
L 1159 -1331 
L 581 -1331 
L 581 3500 
L 1159 3500 
L 1159 2969 
Q 1341 3281 1617 3432 
Q 1894 3584 2278 3584 
Q 2916 3584 3314 3078 
Q 3713 2572 3713 1747 
Q 3713 922 3314 415 
Q 2916 -91 2278 -91 
Q 1894 -91 1617 61 
Q 1341 213 1159 525 
z
M 3116 1747 
Q 3116 2381 2855 2742 
Q 2594 3103 2138 3103 
Q 1681 3103 1420 2742 
Q 1159 2381 1159 1747 
Q 1159 1113 1420 752 
Q 1681 391 2138 391 
Q 2594 391 2855 752 
Q 3116 1113 3116 1747 
z
" transform="scale(0.015625)"/>
       <path id="DejaVuSans-6f" d="M 1959 3097 
Q 1497 3097 1228 2736 
Q 959 2375 959 1747 
Q 959 1119 1226 758 
Q 1494 397 1959 397 
Q 2419 397 2687 759 
Q 2956 1122 2956 1747 
Q 2956 2369 2687 2733 
Q 2419 3097 1959 3097 
z
M 1959 3584 
Q 2709 3584 3137 3096 
Q 3566 2609 3566 1747 
Q 3566 888 3137 398 
Q 2709 -91 1959 -91 
Q 1206 -91 779 398 
Q 353 888 353 1747 
Q 353 2609 779 3096 
Q 1206 3584 1959 3584 
z
" transform="scale(0.015625)"/>
       <path id="DejaVuSans-73" d="M 2834 3397 
L 2834 2853 
Q 2591 2978 2328 3040 
Q 2066 3103 1784 3103 
Q 1356 3103 1142 2972 
Q 928 2841 928 2578 
Q 928 2378 1081 2264 
Q 1234 2150 1697 2047 
L 1894 2003 
Q 2506 1872 2764 1633 
Q 3022 1394 3022 966 
Q 3022 478 2636 193 
Q 2250 -91 1575 -91 
Q 1294 -91 989 -36 
Q 684 19 347 128 
L 347 722 
Q 666 556 975 473 
Q 1284 391 1588 391 
Q 1994 391 2212 530 
Q 2431 669 2431 922 
Q 2431 1156 2273 1281 
Q 2116 1406 1581 1522 
L 1381 1569 
Q 847 1681 609 1914 
Q 372 2147 372 2553 
Q 372 3047 722 3315 
Q 1072 3584 1716 3584 
Q 2034 3584 2315 3537 
Q 2597 3491 2834 3397 
z
" transform="scale(0.015625)"/>
       <path id="DejaVuSans-69" d="M 603 3500 
L 1178 3500 
L 1178 0 
L 603 0 
L 603 3500 
z
M 603 4863 
L 1178 4863 
L 1178 4134 
L 603 4134 
L 603 4863 
z
" transform="scale(0.015625)"/>
       <path id="DejaVuSans-74" d="M 1172 4494 
L 1172 3500 
L 2356 3500 
L 2356 3053 
L 1172 3053 
L 1172 1153 
Q 1172 725 1289 603 
Q 1406 481 1766 481 
L 2356 481 
L 2356 0 
L 1766 0 
Q 1100 0 847 248 
Q 594 497 594 1153 
L 594 3053 
L 172 3053 
L 172 3500 
L 594 3500 
L 594 4494 
L 1172 4494 
z
" transform="scale(0.015625)"/>
       <path id="DejaVuSans-6e" d="M 3513 2113 
L 3513 0 
L 2938 0 
L 2938 2094 
Q 2938 2591 2744 2837 
Q 2550 3084 2163 3084 
Q 1697 3084 1428 2787 
Q 1159 2491 1159 1978 
L 1159 0 
L 581 0 
L 581 3500 
L 1159 3500 
L 1159 2956 
Q 1366 3272 1645 3428 
Q 1925 3584 2291 3584 
Q 2894 3584 3203 3211 
Q 3513 2838 3513 2113 
z
" transform="scale(0.015625)"/>
      </defs>
      <use xlink:href="#DejaVuSans-61"/>
      <use xlink:href="#DejaVuSans-72" x="61.279297"/>
      <use xlink:href="#DejaVuSans-63" x="100.142578"/>
      <use xlink:href="#DejaVuSans-20" x="155.123047"/>
      <use xlink:href="#DejaVuSans-70" x="186.910156"/>
      <use xlink:href="#DejaVuSans-6f" x="250.386719"/>
      <use xlink:href="#DejaVuSans-73" x="311.568359"/>
      <use xlink:href="#DejaVuSans-69" x="363.667969"/>
      <use xlink:href="#DejaVuSans-74" x="391.451172"/>
      <use xlink:href="#DejaVuSans-69" x="430.660156"/>
      <use xlink:href="#DejaVuSans-6f" x="458.443359"/>
      <use xlink:href="#DejaVuSans-6e" x="519.625"/>
     </g>
    </g>
   </g>
   <g id="matplotlib.axis_2">
    <g id="ytick_1">
     <g id="line2d_6">
      <defs>
       <path id="m0bdb822797" d="M 0 0 
L -3.5 0 
" style="stroke: #000000; stroke-width: 0.8"/>
      </defs>
      <g>
       <use xlink:href="#m0bdb822797" x="57.6" y="295.534139" style="stroke: #000000; stroke-width: 0.8"/>
      </g>
     </g>
     <g id="text_7">
      <!-- 0.0000 -->
      <g transform="translate(15.609375 299.333358) scale(0.1 -0.1)">
       <defs>
        <path id="DejaVuSans-2e" d="M 684 794 
L 1344 794 
L 1344 0 
L 684 0 
L 684 794 
z
" transform="scale(0.015625)"/>
       </defs>
       <use xlink:href="#DejaVuSans-30"/>
       <use xlink:href="#DejaVuSans-2e" x="63.623047"/>
       <use xlink:href="#DejaVuSans-30" x="95.410156"/>
       <use xlink:href="#DejaVuSans-30" x="159.033203"/>
       <use xlink:href="#DejaVuSans-30" x="222.65625"/>
       <use xlink:href="#DejaVuSans-30" x="286.279297"/>
      </g>
     </g>
    </g>
    <g id="ytick_2">
     <g id="line2d_7">
      <g>
       <use xlink:href="#m0bdb822797" x="57.6" y="241.11203" style="stroke: #000000; stroke-width: 0.8"/>
      </g>
     </g>
     <g id="text_8">
      <!-- 0.0002 -->
      <g transform="translate(15.609375 244.911249) scale(0.1 -0.1)">
       <use xlink:href="#DejaVuSans-30"/>
       <use xlink:href="#DejaVuSans-2e" x="63.623047"/>
       <use xlink:href="#DejaVuSans-30" x="95.410156"/>
       <use xlink:href="#DejaVuSans-30" x="159.033203"/>
       <use xlink:href="#DejaVuSans-30" x="222.65625"/>
       <use xlink:href="#DejaVuSans-32" x="286.279297"/>
      </g>
     </g>
    </g>
    <g id="ytick_3">
     <g id="line2d_8">
      <g>
       <use xlink:href="#m0bdb822797" x="57.6" y="186.689921" style="stroke: #000000; stroke-width: 0.8"/>
      </g>
     </g>
     <g id="text_9">
      <!-- 0.0004 -->
      <g transform="translate(15.609375 190.48914) scale(0.1 -0.1)">
       <use xlink:href="#DejaVuSans-30"/>
       <use xlink:href="#DejaVuSans-2e" x="63.623047"/>
       <use xlink:href="#DejaVuSans-30" x="95.410156"/>
       <use xlink:href="#DejaVuSans-30" x="159.033203"/>
       <use xlink:href="#DejaVuSans-30" x="222.65625"/>
       <use xlink:href="#DejaVuSans-34" x="286.279297"/>
      </g>
     </g>
    </g>
    <g id="ytick_4">
     <g id="line2d_9">
      <g>
       <use xlink:href="#m0bdb822797" x="57.6" y="132.267812" style="stroke: #000000; stroke-width: 0.8"/>
      </g>
     </g>
     <g id="text_10">
      <!-- 0.0006 -->
      <g transform="translate(15.609375 136.067031) scale(0.1 -0.1)">
       <use xlink:href="#DejaVuSans-30"/>
       <use xlink:href="#DejaVuSans-2e" x="63.623047"/>
       <use xlink:href="#DejaVuSans-30" x="95.410156"/>
       <use xlink:href="#DejaVuSans-30" x="159.033203"/>
       <use xlink:href="#DejaVuSans-30" x="222.65625"/>
       <use xlink:href="#DejaVuSans-36" x="286.279297"/>
      </g>
     </g>
    </g>
    <g id="ytick_5">
     <g id="line2d_10">
      <g>
       <use xlink:href="#m0bdb822797" x="57.6" y="77.845703" style="stroke: #000000; stroke-width: 0.8"/>
      </g>
     </g>
     <g id="text_11">
      <!-- 0.0008 -->
      <g transform="translate(15.609375 81.644922) scale(0.1 -0.1)">
       <use xlink:href="#DejaVuSans-30"/>
       <use xlink:href="#DejaVuSans-2e" x="63.623047"/>
       <use xlink:href="#DejaVuSans-30" x="95.410156"/>
       <use xlink:href="#DejaVuSans-30" x="159.033203"/>
       <use xlink:href="#DejaVuSans-30" x="222.65625"/>
       <use xlink:href="#DejaVuSans-38" x="286.279297"/>
      </g>
     </g>
    </g>
    <g id="text_12">
     <!-- Kinetic energy -->
     <g transform="translate(9.529687 210.552219) rotate(-90) scale(0.1 -0.1)">
      <defs>
       <path id="DejaVuSans-4b" d="M 628 4666 
L 1259 4666 
L 1259 2694 
L 3353 4666 
L 4166 4666 
L 1850 2491 
L 4331 0 
L 3500 0 
L 1259 2247 
L 1259 0 
L 628 0 
L 628 4666 
z
" transform="scale(0.015625)"/>
       <path id="DejaVuSans-65" d="M 3597 1894 
L 3597 1613 
L 953 1613 
Q 991 1019 1311 708 
Q 1631 397 2203 397 
Q 2534 397 2845 478 
Q 3156 559 3463 722 
L 3463 178 
Q 3153 47 2828 -22 
Q 2503 -91 2169 -91 
Q 1331 -91 842 396 
Q 353 884 353 1716 
Q 353 2575 817 3079 
Q 1281 3584 2069 3584 
Q 2775 3584 3186 3129 
Q 3597 2675 3597 1894 
z
M 3022 2063 
Q 3016 2534 2758 2815 
Q 2500 3097 2075 3097 
Q 1594 3097 1305 2825 
Q 1016 2553 972 2059 
L 3022 2063 
z
" transform="scale(0.015625)"/>
       <path id="DejaVuSans-67" d="M 2906 1791 
Q 2906 2416 2648 2759 
Q 2391 3103 1925 3103 
Q 1463 3103 1205 2759 
Q 947 2416 947 1791 
Q 947 1169 1205 825 
Q 1463 481 1925 481 
Q 2391 481 2648 825 
Q 2906 1169 2906 1791 
z
M 3481 434 
Q 3481 -459 3084 -895 
Q 2688 -1331 1869 -1331 
Q 1566 -1331 1297 -1286 
Q 1028 -1241 775 -1147 
L 775 -588 
Q 1028 -725 1275 -790 
Q 1522 -856 1778 -856 
Q 2344 -856 2625 -561 
Q 2906 -266 2906 331 
L 2906 616 
Q 2728 306 2450 153 
Q 2172 0 1784 0 
Q 1141 0 747 490 
Q 353 981 353 1791 
Q 353 2603 747 3093 
Q 1141 3584 1784 3584 
Q 2172 3584 2450 3431 
Q 2728 3278 2906 2969 
L 2906 3500 
L 3481 3500 
L 3481 434 
z
" transform="scale(0.015625)"/>
       <path id="DejaVuSans-79" d="M 2059 -325 
Q 1816 -950 1584 -1140 
Q 1353 -1331 966 -1331 
L 506 -1331 
L 506 -850 
L 844 -850 
Q 1081 -850 1212 -737 
Q 1344 -625 1503 -206 
L 1606 56 
L 191 3500 
L 800 3500 
L 1894 763 
L 2988 3500 
L 3597 3500 
L 2059 -325 
z
" transform="scale(0.015625)"/>
      </defs>
      <use xlink:href="#DejaVuSans-4b"/>
      <use xlink:href="#DejaVuSans-69" x="65.576172"/>
      <use xlink:href="#DejaVuSans-6e" x="93.359375"/>
      <use xlink:href="#DejaVuSans-65" x="156.738281"/>
      <use xlink:href="#DejaVuSans-74" x="218.261719"/>
      <use xlink:href="#DejaVuSans-69" x="257.470703"/>
      <use xlink:href="#DejaVuSans-63" x="285.253906"/>
      <use xlink:href="#DejaVuSans-20" x="340.234375"/>
      <use xlink:href="#DejaVuSans-65" x="372.021484"/>
      <use xlink:href="#DejaVuSans-6e" x="433.544922"/>
      <use xlink:href="#DejaVuSans-65" x="496.923828"/>
      <use xlink:href="#DejaVuSans-72" x="558.447266"/>
      <use xlink:href="#DejaVuSans-67" x="597.810547"/>
      <use xlink:href="#DejaVuSans-79" x="661.287109"/>
     </g>
    </g>
   </g>
   <g id="line2d_11">
    <path d="M 73.832727 279.694856 
L 75.133946 218.622093 
L 75.459259 219.675161 
L 78.061654 285.541696 
L 78.387113 287.564565 
L 82.290796 274.877139 
L 82.615889 273.172367 
L 87.170125 225.03846 
L 91.073808 212.015249 
L 91.399267 208.600262 
L 93.676385 121.666385 
L 94.001478 119.90583 
L 96.278596 162.148271 
L 96.604055 161.329218 
L 100.832831 128.120847 
L 105.061974 104.403692 
L 106.037986 94.817238 
L 109.29075 61.521791 
L 109.616209 60.229266 
L 112.21842 82.689271 
L 112.544246 83.100157 
L 114.169713 57.913605 
L 114.495538 65.198005 
L 115.795179 53.568 
L 116.121005 55.197942 
L 118.723948 84.215811 
L 119.375599 88.264816 
L 123.278184 108.885353 
L 128.484071 143.565842 
L 132.06083 165.046248 
L 134.337947 186.1457 
L 134.989598 188.055916 
L 136.940891 193.125335 
L 137.592542 200.001569 
L 141.169301 241.090261 
L 141.495126 243.188233 
L 145.723536 259.806024 
L 147.026838 267.62376 
L 150.277772 287.219801 
L 153.206541 293.560521 
L 154.832008 295.488 
L 156.461135 293.560521 
L 157.434951 291.51425 
L 159.386243 287.219801 
L 160.037894 283.641548 
L 163.940479 259.806024 
L 168.17255 243.188233 
L 168.494714 241.090261 
L 172.726785 193.125335 
L 175.326068 186.1457 
L 177.929011 162.891133 
L 182.483247 135.378035 
L 186.711657 107.045885 
L 190.617902 86.558683 
L 190.943728 84.215811 
L 193.54301 55.197942 
L 193.868836 53.568 
L 195.497963 68.104145 
L 195.820128 62.950372 
L 197.12343 83.100157 
L 197.449256 82.689271 
L 200.052199 60.229266 
L 200.374363 61.521791 
L 204.606434 104.403692 
L 209.16067 130.199772 
L 213.063255 161.329218 
L 213.38908 162.148271 
L 215.666198 119.90583 
L 215.992023 121.666385 
L 218.269141 208.600262 
L 218.594967 212.015249 
L 222.497551 225.03846 
L 223.149202 231.226254 
L 227.051787 273.172367 
L 227.377612 274.877139 
L 231.280197 287.564565 
L 231.606023 285.541696 
L 234.208966 219.675161 
L 234.534791 218.622093 
L 235.834433 279.694856 
L 236.486084 279.694856 
L 237.785725 218.622093 
L 238.11155 219.675161 
L 240.714494 285.541696 
L 241.040319 287.564565 
L 244.942904 274.877139 
L 245.268729 273.172367 
L 249.822965 225.03846 
L 253.725549 212.015249 
L 254.051375 208.600262 
L 256.328493 121.666385 
L 256.654318 119.90583 
L 258.931436 162.148271 
L 259.257262 161.329218 
L 263.485672 128.120847 
L 267.714082 104.403692 
L 268.691558 94.814516 
L 271.942492 61.521791 
L 272.268317 60.229266 
L 274.871261 82.689271 
L 275.197086 83.100157 
L 276.496727 62.950372 
L 276.822553 68.104145 
L 278.44802 53.568 
L 278.773845 55.197942 
L 281.376788 84.215811 
L 282.02844 88.264816 
L 285.931024 108.885353 
L 291.136911 143.565842 
L 294.71367 165.046248 
L 296.990788 186.1457 
L 297.642439 188.055916 
L 299.593731 193.125335 
L 300.245382 200.00429 
L 303.822141 241.090261 
L 304.147966 243.188233 
L 308.376377 259.806024 
L 309.679679 267.62376 
L 312.930612 287.219801 
L 315.859381 293.560521 
L 317.484848 295.488 
L 319.113975 293.560521 
L 320.087791 291.51425 
L 322.039083 287.219801 
L 322.690734 283.641548 
L 326.593319 259.806024 
L 330.821729 243.188233 
L 331.147554 241.090261 
L 335.375965 193.125335 
L 337.978908 186.1457 
L 340.581851 162.891133 
L 345.136087 135.375314 
L 349.364497 107.045885 
L 353.270742 86.558683 
L 353.592907 84.215811 
L 356.19585 55.197942 
L 356.521676 53.568 
L 357.824978 65.198005 
L 358.147143 57.913605 
L 359.77627 83.100157 
L 360.102096 82.689271 
L 362.701378 60.229266 
L 363.027204 61.521791 
L 367.255614 104.403692 
L 371.809849 130.199772 
L 375.716095 161.329218 
L 376.04192 162.148271 
L 378.319038 119.90583 
L 378.641203 121.666385 
L 380.91832 208.600262 
L 381.244146 212.015249 
L 385.150391 225.03846 
L 385.798382 231.226254 
L 389.704627 273.172367 
L 390.030453 274.877139 
L 393.933037 287.564565 
L 394.258863 285.541696 
L 396.861806 219.675161 
L 397.183971 218.622093 
L 398.487273 279.694856 
L 398.487273 279.694856 
" clip-path="url(#pb401e51ad1)" style="fill: none; stroke: #008000; stroke-width: 1.5; stroke-linecap: square"/>
   </g>
   <g id="line2d_12">
    <path d="M 73.832727 294.710569 
L 75.459259 290.946899 
L 78.061654 287.745247 
L 78.387113 286.321837 
L 83.266442 258.001932 
L 87.170125 237.688879 
L 91.399267 194.85868 
L 93.676385 188.371564 
L 94.001478 186.028692 
L 96.604055 160.782276 
L 100.507738 137.527709 
L 101.48375 128.790239 
L 105.387433 93.29614 
L 109.616209 70.400758 
L 112.21842 64.267387 
L 112.544246 64.280992 
L 114.169713 73.200776 
L 114.495538 76.104195 
L 115.795179 74.855208 
L 116.121005 75.350449 
L 118.723948 82.150492 
L 119.375599 85.116497 
L 123.278184 104.760157 
L 127.83242 144.357683 
L 131.738665 158.629882 
L 132.06083 160.428532 
L 134.663773 193.084519 
L 136.940891 197.631486 
L 137.592542 203.283222 
L 141.495126 239.324264 
L 150.277772 286.897895 
L 153.532366 292.542012 
L 154.832008 295.203715 
L 157.109125 290.742544 
L 159.386243 286.897895 
L 160.037894 283.755018 
L 168.494714 237.114726 
L 172.726785 197.631486 
L 175.003903 193.084519 
L 175.977719 181.212336 
L 177.603185 160.428532 
L 178.254837 157.440758 
L 181.835257 144.357683 
L 182.483247 139.17942 
L 186.711657 102.817288 
L 190.943728 82.150492 
L 193.54301 75.350449 
L 193.868836 74.855208 
L 195.497963 76.417122 
L 195.820128 71.418452 
L 197.12343 64.280992 
L 197.449256 64.267387 
L 200.052199 70.400758 
L 200.700189 73.636153 
L 204.606434 95.41316 
L 209.16067 137.527709 
L 213.38908 162.997256 
L 215.992023 188.371564 
L 218.269141 194.85868 
L 218.917131 201.027426 
L 222.823377 239.895696 
L 227.703438 265.082248 
L 231.280197 286.321837 
L 231.606023 287.745247 
L 234.534791 291.472345 
L 235.834433 294.710569 
M 236.486084 294.710569 
L 238.11155 290.946899 
L 240.714494 287.745247 
L 241.040319 286.321837 
L 245.92038 258.001932 
L 249.822965 237.688879 
L 254.051375 194.85868 
L 256.328493 188.371564 
L 256.654318 186.028692 
L 259.257262 160.782276 
L 263.159846 137.527709 
L 264.137323 128.790239 
L 267.714082 95.41316 
L 268.691558 89.720607 
L 272.268317 70.400758 
L 274.871261 64.267387 
L 275.197086 64.280992 
L 276.496727 71.418452 
L 276.822553 76.417122 
L 278.44802 74.855208 
L 278.773845 75.350449 
L 281.376788 82.150492 
L 282.02844 85.116497 
L 285.931024 104.760157 
L 290.48526 144.357683 
L 294.387844 158.629882 
L 294.71367 160.428532 
L 297.316613 193.084519 
L 299.593731 197.631486 
L 300.245382 203.283222 
L 304.147966 239.324264 
L 312.930612 286.897895 
L 316.185207 292.542012 
L 317.484848 295.203715 
L 319.761965 290.742544 
L 322.039083 286.897895 
L 322.690734 283.755018 
L 331.147554 237.114726 
L 335.375965 197.631486 
L 337.653082 193.084519 
L 338.630559 181.212336 
L 340.256026 160.428532 
L 340.907677 157.440758 
L 344.484436 144.357683 
L 345.136087 139.17942 
L 349.364497 102.817288 
L 353.592907 82.150492 
L 356.19585 75.350449 
L 356.521676 74.855208 
L 357.824978 76.104195 
L 358.147143 73.200776 
L 359.77627 64.280992 
L 360.102096 64.267387 
L 362.701378 70.400758 
L 363.353029 73.636153 
L 367.255614 95.41316 
L 371.809849 137.527709 
L 376.04192 162.997256 
L 378.319038 186.028692 
L 378.641203 188.371564 
L 380.91832 194.85868 
L 381.569972 201.027426 
L 385.476217 239.895696 
L 390.678443 267.011512 
L 394.258863 287.745247 
L 397.183971 291.472345 
L 398.487273 294.710569 
L 398.487273 294.710569 
" clip-path="url(#pb401e51ad1)" style="fill: none; stroke: #ff0000; stroke-width: 1.5; stroke-linecap: square"/>
   </g>
   <g id="patch_3">
    <path d="M 57.6 307.584 
L 57.6 41.472 
" style="fill: none; stroke: #000000; stroke-width: 0.8; stroke-linejoin: miter; stroke-linecap: square"/>
   </g>
   <g id="patch_4">
    <path d="M 414.72 307.584 
L 414.72 41.472 
" style="fill: none; stroke: #000000; stroke-width: 0.8; stroke-linejoin: miter; stroke-linecap: square"/>
   </g>
   <g id="patch_5">
    <path d="M 57.6 307.584 
L 414.72 307.584 
" style="fill: none; stroke: #000000; stroke-width: 0.8; stroke-linejoin: miter; stroke-linecap: square"/>
   </g>
   <g id="patch_6">
    <path d="M 57.6 41.472 
L 414.72 41.472 
" style="fill: none; stroke: #000000; stroke-width: 0.8; stroke-linejoin: miter; stroke-linecap: square"/>
   </g>
   <g id="legend_1">
    <g id="patch_7">
     <path d="M 212.435781 78.82825 
L 259.884219 78.82825 
Q 261.884219 78.82825 261.884219 76.82825 
L 261.884219 48.472 
Q 261.884219 46.472 259.884219 46.472 
L 212.435781 46.472 
Q 210.435781 46.472 210.435781 48.472 
L 210.435781 76.82825 
Q 210.435781 78.82825 212.435781 78.82825 
z
" style="fill: #ffffff; opacity: 0.8; stroke: #cccccc; stroke-linejoin: miter"/>
    </g>
    <g id="line2d_13">
     <path d="M 214.435781 54.570437 
L 224.435781 54.570437 
L 234.435781 54.570437 
" style="fill: none; stroke: #008000; stroke-width: 1.5; stroke-linecap: square"/>
    </g>
    <g id="text_13">
     <!-- DG -->
     <g transform="translate(242.435781 58.070437) scale(0.1 -0.1)">
      <defs>
       <path id="DejaVuSans-44" d="M 1259 4147 
L 1259 519 
L 2022 519 
Q 2988 519 3436 956 
Q 3884 1394 3884 2338 
Q 3884 3275 3436 3711 
Q 2988 4147 2022 4147 
L 1259 4147 
z
M 628 4666 
L 1925 4666 
Q 3281 4666 3915 4102 
Q 4550 3538 4550 2338 
Q 4550 1131 3912 565 
Q 3275 0 1925 0 
L 628 0 
L 628 4666 
z
" transform="scale(0.015625)"/>
       <path id="DejaVuSans-47" d="M 3809 666 
L 3809 1919 
L 2778 1919 
L 2778 2438 
L 4434 2438 
L 4434 434 
Q 4069 175 3628 42 
Q 3188 -91 2688 -91 
Q 1594 -91 976 548 
Q 359 1188 359 2328 
Q 359 3472 976 4111 
Q 1594 4750 2688 4750 
Q 3144 4750 3555 4637 
Q 3966 4525 4313 4306 
L 4313 3634 
Q 3963 3931 3569 4081 
Q 3175 4231 2741 4231 
Q 1884 4231 1454 3753 
Q 1025 3275 1025 2328 
Q 1025 1384 1454 906 
Q 1884 428 2741 428 
Q 3075 428 3337 486 
Q 3600 544 3809 666 
z
" transform="scale(0.015625)"/>
      </defs>
      <use xlink:href="#DejaVuSans-44"/>
      <use xlink:href="#DejaVuSans-47" x="77.001953"/>
     </g>
    </g>
    <g id="line2d_14">
     <path d="M 214.435781 69.248562 
L 224.435781 69.248562 
L 234.435781 69.248562 
" style="fill: none; stroke: #ff0000; stroke-width: 1.5; stroke-linecap: square"/>
    </g>
    <g id="text_14">
     <!-- ES -->
     <g transform="translate(242.435781 72.748562) scale(0.1 -0.1)">
      <defs>
       <path id="DejaVuSans-45" d="M 628 4666 
L 3578 4666 
L 3578 4134 
L 1259 4134 
L 1259 2753 
L 3481 2753 
L 3481 2222 
L 1259 2222 
L 1259 531 
L 3634 531 
L 3634 0 
L 628 0 
L 628 4666 
z
" transform="scale(0.015625)"/>
       <path id="DejaVuSans-53" d="M 3425 4513 
L 3425 3897 
Q 3066 4069 2747 4153 
Q 2428 4238 2131 4238 
Q 1616 4238 1336 4038 
Q 1056 3838 1056 3469 
Q 1056 3159 1242 3001 
Q 1428 2844 1947 2747 
L 2328 2669 
Q 3034 2534 3370 2195 
Q 3706 1856 3706 1288 
Q 3706 609 3251 259 
Q 2797 -91 1919 -91 
Q 1588 -91 1214 -16 
Q 841 59 441 206 
L 441 856 
Q 825 641 1194 531 
Q 1563 422 1919 422 
Q 2459 422 2753 634 
Q 3047 847 3047 1241 
Q 3047 1584 2836 1778 
Q 2625 1972 2144 2069 
L 1759 2144 
Q 1053 2284 737 2584 
Q 422 2884 422 3419 
Q 422 4038 858 4394 
Q 1294 4750 2059 4750 
Q 2388 4750 2728 4690 
Q 3069 4631 3425 4513 
z
" transform="scale(0.015625)"/>
      </defs>
      <use xlink:href="#DejaVuSans-45"/>
      <use xlink:href="#DejaVuSans-53" x="63.183594"/>
     </g>
    </g>
   </g>
  </g>
 </g>
 <defs>
  <clipPath id="pb401e51ad1">
   <rect x="57.6" y="41.472" width="357.12" height="266.112"/>
  </clipPath>
 </defs>
</svg>
